<svg id="visual" viewBox="0 0 960 540" width="960" height="540" xmlns="http://www.w3.org/2000/svg" xmlns:xlink="http://www.w3.org/1999/xlink" version="1.1"><rect x="0" y="0" width="960" height="540" fill="#001829"></rect><g fill="#297EA6"><path d="M0 -141.6L31.8 -43.7L134.6 -43.7L51.4 16.7L83.2 114.5L0 54.1L-83.2 114.5L-51.4 16.7L-134.6 -43.7L-31.8 -43.7Z" transform="translate(551 164)"></path><path d="M0 -70.8L15.9 -21.9L67.3 -21.9L25.7 8.4L41.6 57.3L0 27L-41.6 57.3L-25.7 8.4L-67.3 -21.9L-15.9 -21.9Z" transform="translate(233 503)"></path><path d="M0 -117L26.3 -36.2L111.3 -36.2L42.5 13.8L68.8 94.7L0 44.7L-68.8 94.7L-42.5 13.8L-111.3 -36.2L-26.3 -36.2Z" transform="translate(77 146)"></path><path d="M0 -133.1L29.9 -41.1L126.6 -41.1L48.3 15.7L78.2 107.7L0 50.8L-78.2 107.7L-48.3 15.7L-126.6 -41.1L-29.9 -41.1Z" transform="translate(829 280)"></path><path d="M0 -71.7L16.1 -22.2L68.2 -22.2L26.1 8.5L42.2 58L0 27.4L-42.2 58L-26.1 8.5L-68.2 -22.2L-16.1 -22.2Z" transform="translate(547 503)"></path></g></svg>